PathFileType	4	(X/Y/Z)	E:/New_biomech_experiments/Elbow Flexion/Shreyas_25_06_24_elbow_flexion/Session 2024-06-26/Shreyas_ElbFlex_pp_staticPose.trc	
DataRate	CameraRate	NumFrames	NumMarkers	Units	OrigDataRate	OrigDataStartFrame	OrigNumFrames	
120.00	120.00	12	19	m	120.00	195	778	
Frame#	Time	MarkerSet_LFHD			MarkerSet_LBHD			MarkerSet_C7			MarkerSet_RBHD			MarkerSet_PRSHO			MarkerSet_RSHO			MarkerSet_STRN			MarkerSet_RFHD			MarkerSet_CLAV			MarkerSet_RWRA			MarkerSet_RWRB			MarkerSet_ARSHO			MarkerSet_RFRM			MarkerSet_RELB			MarkerSet_RUPA			MarkerSet_MRHAND			MarkerSet_T10			MarkerSet_RHAND			MarkerSet_MRELB			
		X1	Y1	Z1	X2	Y2	Z2	X3	Y3	Z3	X4	Y4	Z4	X5	Y5	Z5	X6	Y6	Z6	X7	Y7	Z7	X8	Y8	Z8	X9	Y9	Z9	X10	Y10	Z10	X11	Y11	Z11	X12	Y12	Z12	X13	Y13	Z13	X14	Y14	Z14	X15	Y15	Z15	X16	Y16	Z16	X17	Y17	Z17	X18	Y18	Z18	X19	Y19	Z19	

195	1.617	0.04804	1.83876	-0.05478	-0.05713	1.73734	-0.07542	-0.08554	1.54386	-0.01328	-0.07290	1.75618	0.06127	-0.11037	1.44698	0.11630	0.00816	1.50156	0.19764	0.15217	1.34573	-0.01560	0.02984	1.82282	0.07193	0.11179	1.46882	-0.00820	0.25823	1.19106	0.14042	0.27863	1.16731	0.23540	0.09183	1.45851	0.10290	0.15222	1.18570	0.24865	0.01839	1.18916	0.26912	0.01023	1.30799	0.24583	0.37142	1.15157	0.23938	-0.10564	1.33316	-0.02302	0.39661	1.19006	0.12427	0.00640	1.13736	0.16092 
196	1.625	0.04807	1.83875	-0.05481	-0.05709	1.73734	-0.07542	-0.08550	1.54385	-0.01327	-0.07285	1.75618	0.06126	-0.11033	1.44696	0.11629	0.00818	1.50154	0.19764	0.15222	1.34573	-0.01560	0.02989	1.82281	0.07191	0.11183	1.46882	-0.00820	0.25828	1.19109	0.14044	0.27867	1.16732	0.23542	0.09186	1.45850	0.10290	0.15226	1.18570	0.24866	0.01842	1.18914	0.26910	0.01026	1.30798	0.24582	0.37147	1.15160	0.23942	-0.10559	1.33315	-0.02304	0.39666	1.19011	0.12432	0.00658	1.13727	0.16090 
197	1.633	0.04809	1.83874	-0.05484	-0.05706	1.73733	-0.07542	-0.08546	1.54384	-0.01327	-0.07280	1.75617	0.06126	-0.11029	1.44694	0.11628	0.00821	1.50153	0.19764	0.15227	1.34573	-0.01560	0.02993	1.82280	0.07189	0.11187	1.46881	-0.00820	0.25832	1.19112	0.14047	0.27871	1.16734	0.23545	0.09190	1.45850	0.10290	0.15229	1.18570	0.24866	0.01844	1.18913	0.26909	0.01029	1.30796	0.24581	0.37151	1.15163	0.23947	-0.10554	1.33314	-0.02305	0.39670	1.19014	0.12437	0.00672	1.13720	0.16088 
198	1.642	0.04812	1.83874	-0.05487	-0.05705	1.73730	-0.07542	-0.08542	1.54383	-0.01327	-0.07274	1.75616	0.06127	-0.11025	1.44693	0.11627	0.00824	1.50151	0.19763	0.15231	1.34572	-0.01560	0.02998	1.82279	0.07188	0.11191	1.46880	-0.00819	0.25837	1.19114	0.14050	0.27874	1.16735	0.23547	0.09193	1.45849	0.10290	0.15232	1.18570	0.24867	0.01847	1.18911	0.26908	0.01033	1.30794	0.24580	0.37154	1.15165	0.23951	-0.10549	1.33313	-0.02306	0.39674	1.19017	0.12442	0.00683	1.13716	0.16087 
199	1.650	0.04814	1.83873	-0.05489	-0.05703	1.73726	-0.07542	-0.08537	1.54382	-0.01327	-0.07269	1.75616	0.06128	-0.11020	1.44691	0.11626	0.00827	1.50149	0.19763	0.15236	1.34572	-0.01560	0.03002	1.82279	0.07186	0.11195	1.46879	-0.00819	0.25841	1.19115	0.14052	0.27877	1.16735	0.23550	0.09197	1.45848	0.10291	0.15235	1.18569	0.24868	0.01849	1.18910	0.26907	0.01036	1.30792	0.24580	0.37158	1.15166	0.23956	-0.10544	1.33312	-0.02308	0.39678	1.19019	0.12447	0.00691	1.13713	0.16085 
200	1.658	0.04816	1.83872	-0.05491	-0.05701	1.73723	-0.07542	-0.08533	1.54381	-0.01327	-0.07263	1.75615	0.06130	-0.11016	1.44689	0.11625	0.00830	1.50148	0.19763	0.15241	1.34571	-0.01560	0.03006	1.82279	0.07185	0.11199	1.46878	-0.00820	0.25845	1.19115	0.14055	0.27879	1.16736	0.23553	0.09201	1.45847	0.10291	0.15238	1.18568	0.24869	0.01851	1.18908	0.26906	0.01039	1.30791	0.24579	0.37161	1.15167	0.23960	-0.10538	1.33311	-0.02309	0.39682	1.19020	0.12451	0.00697	1.13711	0.16083 
201	1.667	0.04818	1.83871	-0.05492	-0.05699	1.73723	-0.07542	-0.08528	1.54380	-0.01327	-0.07257	1.75614	0.06131	-0.11011	1.44688	0.11623	0.00834	1.50147	0.19762	0.15246	1.34571	-0.01561	0.03009	1.82279	0.07184	0.11203	1.46877	-0.00820	0.25849	1.19115	0.14057	0.27882	1.16736	0.23556	0.09205	1.45846	0.10291	0.15240	1.18568	0.24869	0.01853	1.18907	0.26905	0.01043	1.30789	0.24578	0.37164	1.15167	0.23965	-0.10532	1.33310	-0.02311	0.39687	1.19020	0.12456	0.00700	1.13711	0.16082 
202	1.675	0.04820	1.83870	-0.05494	-0.05696	1.73722	-0.07542	-0.08524	1.54379	-0.01328	-0.07253	1.75612	0.06131	-0.11006	1.44687	0.11622	0.00838	1.50146	0.19761	0.15251	1.34571	-0.01561	0.03013	1.82279	0.07183	0.11207	1.46876	-0.00821	0.25853	1.19115	0.14059	0.27885	1.16735	0.23558	0.09210	1.45845	0.10292	0.15243	1.18567	0.24870	0.01856	1.18907	0.26904	0.01046	1.30788	0.24577	0.37167	1.15167	0.23970	-0.10526	1.33309	-0.02313	0.39691	1.19019	0.12461	0.00701	1.13712	0.16080 
203	1.683	0.04821	1.83869	-0.05494	-0.05693	1.73719	-0.07541	-0.08520	1.54378	-0.01328	-0.07249	1.75611	0.06132	-0.11001	1.44686	0.11620	0.00842	1.50145	0.19760	0.15256	1.34571	-0.01562	0.03017	1.82279	0.07182	0.11212	1.46875	-0.00821	0.25857	1.19114	0.14062	0.27887	1.16734	0.23561	0.09215	1.45844	0.10291	0.15245	1.18566	0.24871	0.01858	1.18906	0.26903	0.01049	1.30787	0.24576	0.37170	1.15166	0.23975	-0.10519	1.33308	-0.02315	0.39695	1.19018	0.12465	0.00698	1.13716	0.16079 
204	1.692	0.04824	1.83870	-0.05495	-0.05691	1.73716	-0.07540	-0.08515	1.54377	-0.01328	-0.07245	1.75609	0.06132	-0.10996	1.44685	0.11619	0.00846	1.50145	0.19759	0.15261	1.34571	-0.01563	0.03020	1.82278	0.07182	0.11216	1.46875	-0.00822	0.25861	1.19112	0.14064	0.27889	1.16733	0.23564	0.09220	1.45843	0.10291	0.15248	1.18565	0.24872	0.01860	1.18906	0.26902	0.01052	1.30787	0.24575	0.37173	1.15163	0.23979	-0.10512	1.33307	-0.02316	0.39699	1.19015	0.12469	0.00692	1.13722	0.16077 
205	1.700	0.04826	1.83871	-0.05495	-0.05688	1.73713	-0.07540	-0.08511	1.54377	-0.01328	-0.07240	1.75607	0.06133	-0.10991	1.44684	0.11618	0.00850	1.50145	0.19758	0.15266	1.34571	-0.01564	0.03023	1.82277	0.07181	0.11220	1.46874	-0.00823	0.25865	1.19111	0.14066	0.27892	1.16731	0.23566	0.09225	1.45842	0.10291	0.15250	1.18564	0.24873	0.01862	1.18906	0.26901	0.01055	1.30786	0.24574	0.37175	1.15160	0.23984	-0.10505	1.33305	-0.02318	0.39703	1.19011	0.12473	0.00680	1.13731	0.16076 
206	1.708	0.04828	1.83871	-0.05496	-0.05685	1.73712	-0.07539	-0.08507	1.54376	-0.01328	-0.07235	1.75606	0.06134	-0.10986	1.44683	0.11616	0.00854	1.50144	0.19757	0.15270	1.34571	-0.01564	0.03027	1.82276	0.07182	0.11224	1.46873	-0.00824	0.25868	1.19109	0.14068	0.27894	1.16728	0.23569	0.09230	1.45842	0.10291	0.15253	1.18562	0.24875	0.01865	1.18906	0.26901	0.01058	1.30786	0.24573	0.37178	1.15155	0.23988	-0.10498	1.33304	-0.02320	0.39707	1.19008	0.12477	0.00661	1.13745	0.16074 
